# xmcd CD database file
#
# Track frame offsets:
#	150
#	24692
#	65614
#	88121
#	115706
#	148315
#	188299
#	219625
#	252044
#	262377
#	298383
#
# Disc length: 4204 seconds
#
# Revision: 0
# Processed by: cddbd v1.5.2PL0 Copyright (c) Steve Scherf et al.
# Submitted via: CDex 1.70beta2
#
DISCID=b0106a0b
DTITLE=Klüvers Big Band - Hot house. Thilo meets Mackrel
DYEAR=2007
DGENRE=Jazz
TTITLE0=This cant be love
TTITLE1=In a mellow tone
TTITLE2=Sweet lorraine
TTITLE3=Hot house
TTITLE4=Things aint what they used to be
TTITLE5=Bye bye blackbird
TTITLE6=In a sentimental mood
TTITLE7=Just one of those things
TTITLE8=Drums intro, lester leaps in
TTITLE9=Lester leaps in
TTITLE10=Dont get around much anymore
EXTD=YEAR: 2007
EXTT0=
EXTT1=
EXTT2=
EXTT3=
EXTT4=
EXTT5=
EXTT6=
EXTT7=
EXTT8=
EXTT9=
EXTT10=
PLAYORDER=
